<mxfile host="app.diagrams.net" modified="2022-12-03T11:49:28.559Z" agent="5.0 (Macintosh; Intel Mac OS X 10_15_7) AppleWebKit/537.36 (KHTML, like Gecko) Chrome/107.0.0.0 Safari/537.36" version="20.6.0" etag="TCT0Le5eS0wPajJ98CJy" type="github">
  <diagram id="Zq32Nz6-R_J2R9BGfQxa" name="Page-1">
    <mxGraphModel dx="815" dy="472" grid="1" gridSize="10" guides="1" tooltips="1" connect="1" arrows="1" fold="1" page="1" pageScale="1" pageWidth="827" pageHeight="1169" math="0" shadow="0">
      <root>
        <mxCell id="0" />
        <mxCell id="1" parent="0" />
        <mxCell id="WBwYmQ3XYxlrxBIytrpf-2" value="SERVER SIDE" style="rounded=1;whiteSpace=wrap;html=1;labelPosition=center;verticalLabelPosition=top;align=center;verticalAlign=bottom;" vertex="1" parent="1">
          <mxGeometry x="510" y="230" width="300" height="390" as="geometry" />
        </mxCell>
        <mxCell id="WBwYmQ3XYxlrxBIytrpf-3" value="CLIENT SIDE" style="rounded=1;whiteSpace=wrap;html=1;labelPosition=center;verticalLabelPosition=top;align=center;verticalAlign=bottom;" vertex="1" parent="1">
          <mxGeometry x="10" y="230" width="470" height="380" as="geometry" />
        </mxCell>
        <mxCell id="WBwYmQ3XYxlrxBIytrpf-4" value="CIRCUITS" style="rounded=1;whiteSpace=wrap;html=1;labelPosition=center;verticalLabelPosition=top;align=center;verticalAlign=bottom;" vertex="1" parent="1">
          <mxGeometry x="250" y="330" width="140" height="200" as="geometry" />
        </mxCell>
        <mxCell id="WBwYmQ3XYxlrxBIytrpf-20" style="edgeStyle=orthogonalEdgeStyle;rounded=0;orthogonalLoop=1;jettySize=auto;html=1;exitX=0;exitY=0.75;exitDx=0;exitDy=0;entryX=1;entryY=0.5;entryDx=0;entryDy=0;" edge="1" parent="1" source="WBwYmQ3XYxlrxBIytrpf-5" target="WBwYmQ3XYxlrxBIytrpf-19">
          <mxGeometry relative="1" as="geometry" />
        </mxCell>
        <mxCell id="WBwYmQ3XYxlrxBIytrpf-5" value="SHA256" style="rounded=1;whiteSpace=wrap;html=1;" vertex="1" parent="1">
          <mxGeometry x="340" y="360" width="120" height="60" as="geometry" />
        </mxCell>
        <mxCell id="WBwYmQ3XYxlrxBIytrpf-21" style="edgeStyle=orthogonalEdgeStyle;rounded=0;orthogonalLoop=1;jettySize=auto;html=1;exitX=0;exitY=0.75;exitDx=0;exitDy=0;entryX=1;entryY=0.75;entryDx=0;entryDy=0;" edge="1" parent="1" source="WBwYmQ3XYxlrxBIytrpf-6" target="WBwYmQ3XYxlrxBIytrpf-19">
          <mxGeometry relative="1" as="geometry" />
        </mxCell>
        <mxCell id="WBwYmQ3XYxlrxBIytrpf-6" value="SALT" style="rounded=1;whiteSpace=wrap;html=1;" vertex="1" parent="1">
          <mxGeometry x="340" y="430" width="120" height="60" as="geometry" />
        </mxCell>
        <mxCell id="WBwYmQ3XYxlrxBIytrpf-11" style="edgeStyle=orthogonalEdgeStyle;rounded=0;orthogonalLoop=1;jettySize=auto;html=1;exitX=1;exitY=0.25;exitDx=0;exitDy=0;entryX=0;entryY=0.25;entryDx=0;entryDy=0;" edge="1" parent="1" source="WBwYmQ3XYxlrxBIytrpf-9" target="WBwYmQ3XYxlrxBIytrpf-5">
          <mxGeometry relative="1" as="geometry" />
        </mxCell>
        <mxCell id="WBwYmQ3XYxlrxBIytrpf-12" value="Password" style="edgeLabel;html=1;align=center;verticalAlign=middle;resizable=0;points=[];" vertex="1" connectable="0" parent="WBwYmQ3XYxlrxBIytrpf-11">
          <mxGeometry x="-0.0812" relative="1" as="geometry">
            <mxPoint as="offset" />
          </mxGeometry>
        </mxCell>
        <mxCell id="WBwYmQ3XYxlrxBIytrpf-9" value="UI INPUTS" style="rounded=1;whiteSpace=wrap;html=1;" vertex="1" parent="1">
          <mxGeometry x="60" y="330" width="120" height="60" as="geometry" />
        </mxCell>
        <mxCell id="WBwYmQ3XYxlrxBIytrpf-17" style="edgeStyle=orthogonalEdgeStyle;rounded=0;orthogonalLoop=1;jettySize=auto;html=1;exitX=0.25;exitY=1;exitDx=0;exitDy=0;entryX=0.089;entryY=1.014;entryDx=0;entryDy=0;entryPerimeter=0;" edge="1" parent="1" source="WBwYmQ3XYxlrxBIytrpf-14" target="WBwYmQ3XYxlrxBIytrpf-6">
          <mxGeometry relative="1" as="geometry" />
        </mxCell>
        <mxCell id="WBwYmQ3XYxlrxBIytrpf-18" value="RANDOM NUMBER BROADCAST" style="edgeLabel;html=1;align=center;verticalAlign=middle;resizable=0;points=[];" vertex="1" connectable="0" parent="WBwYmQ3XYxlrxBIytrpf-17">
          <mxGeometry x="-0.5588" y="-1" relative="1" as="geometry">
            <mxPoint y="-61" as="offset" />
          </mxGeometry>
        </mxCell>
        <mxCell id="WBwYmQ3XYxlrxBIytrpf-14" value="RANDOM NUMBER GENERATOR" style="rounded=1;whiteSpace=wrap;html=1;" vertex="1" parent="1">
          <mxGeometry x="540" y="260" width="240" height="60" as="geometry" />
        </mxCell>
        <mxCell id="WBwYmQ3XYxlrxBIytrpf-24" style="edgeStyle=orthogonalEdgeStyle;rounded=0;orthogonalLoop=1;jettySize=auto;html=1;exitX=0.25;exitY=1;exitDx=0;exitDy=0;" edge="1" parent="1" source="WBwYmQ3XYxlrxBIytrpf-19" target="WBwYmQ3XYxlrxBIytrpf-23">
          <mxGeometry relative="1" as="geometry">
            <Array as="points">
              <mxPoint x="232" y="580" />
              <mxPoint x="560" y="580" />
              <mxPoint x="560" y="430" />
            </Array>
          </mxGeometry>
        </mxCell>
        <mxCell id="WBwYmQ3XYxlrxBIytrpf-25" value="OUTPUT (POSEIDON(SHA256(PASSWORD), RANDOM_NUMBER)" style="edgeLabel;html=1;align=center;verticalAlign=middle;resizable=0;points=[];" vertex="1" connectable="0" parent="WBwYmQ3XYxlrxBIytrpf-24">
          <mxGeometry x="-0.0234" relative="1" as="geometry">
            <mxPoint as="offset" />
          </mxGeometry>
        </mxCell>
        <mxCell id="WBwYmQ3XYxlrxBIytrpf-19" value="OUTPUT" style="rounded=1;whiteSpace=wrap;html=1;" vertex="1" parent="1">
          <mxGeometry x="210" y="410" width="90" height="60" as="geometry" />
        </mxCell>
        <mxCell id="WBwYmQ3XYxlrxBIytrpf-23" value="VERIFICATION LOGIC" style="rounded=1;whiteSpace=wrap;html=1;" vertex="1" parent="1">
          <mxGeometry x="640" y="400" width="160" height="60" as="geometry" />
        </mxCell>
      </root>
    </mxGraphModel>
  </diagram>
</mxfile>
